name D:\PhD\Datasets\SharingData_IBEC_VALDUCE\DC_Comp_0001.mot
datacolumns 46
datarows 8
range 5.01000000 5.08000000
endheader
                time	         pelvis_tilt	     pelvis_rotation	           pelvis_tx	           pelvis_ty	           pelvis_tz	       hip_flexion_r	     hip_adduction_r	      hip_rotation_r	        knee_angle_r	       ankle_angle_r	    subtalar_angle_r	         mtp_angle_r	       hip_flexion_l	     hip_adduction_l	      hip_rotation_l	        knee_angle_l	       ankle_angle_l	    subtalar_angle_l	         mtp_angle_l	    lumbar_extension	      lumbar_bending	     lumbar_rotation	          arm_flex_r	           arm_add_r	           arm_rot_r	        elbow_flex_r	           pro_sup_r	        wrist_flex_r	         wrist_dev_r	          arm_flex_l	           arm_add_l	           arm_rot_l	        elbow_flex_l	           pro_sup_l	        wrist_flex_l	         wrist_dev_l	          end_eff_tx	          end_eff_ty	          end_eff_tz	             goal_tx	             goal_ty	             goal_tz	            elbow_tx	            elbow_ty	            elbow_tz	
          5.01000000	          0.00000000	          0.00000000	        525.76316558	        392.80035182	        359.01367889	          0.00000000	          0.00000000	          0.00000000	          0.00000000	          0.00000000	          0.00000000	          0.00000000	          0.00000000	          0.00000000	          0.00000000	          0.00000000	          0.00000000	          0.00000000	          0.00000000	        -27.20400429	          1.91277492	          6.12355328	         47.48113251	        -48.38117599	         20.18757439	         87.47293091	         83.11427307	          0.00000000	          0.00000000	          0.00000000	          0.00000000	          0.00000000	          0.00000000	          0.00000000	          0.00000000	          0.00000000	       1079.09495823	        313.81753675	        537.18396458	       1063.51432675	        394.31583663	        542.22792444	        708.17426670	        280.75937820	        719.20528465	
          5.02000000	          0.00000000	          0.00000000	        526.33755308	        392.46392505	        358.80415849	          0.00000000	          0.00000000	          0.00000000	          0.00000000	          0.00000000	          0.00000000	          0.00000000	          0.00000000	          0.00000000	          0.00000000	          0.00000000	          0.00000000	          0.00000000	          0.00000000	        -27.27854347	          1.88801932	          6.17155266	         47.74173355	        -48.47024536	         20.36701584	         87.46698761	         83.15824890	          0.00000000	          0.00000000	          0.00000000	          0.00000000	          0.00000000	          0.00000000	          0.00000000	          0.00000000	          0.00000000	       1080.47357523	        313.62610083	        535.93514554	       1064.83340784	        394.29762223	        541.07697934	        709.88025600	        280.96378260	        718.78868859	
          5.03000000	          0.00000000	          0.00000000	        526.80658958	        392.00619421	        358.60682076	          0.00000000	          0.00000000	          0.00000000	          0.00000000	          0.00000000	          0.00000000	          0.00000000	          0.00000000	          0.00000000	          0.00000000	          0.00000000	          0.00000000	          0.00000000	          0.00000000	        -27.38025093	          1.72145009	          6.25433636	         47.86918640	        -48.42087555	         20.33027077	         87.43593597	         83.15402222	          0.00000000	          0.00000000	          0.00000000	          0.00000000	          0.00000000	          0.00000000	          0.00000000	          0.00000000	          0.00000000	       1081.82212708	        313.66575207	        534.54799348	       1066.16746279	        394.26988282	        539.79850235	        711.71722547	        280.73226770	        718.27759287	
          5.04000000	          0.00000000	          0.00000000	        527.56188062	        391.64320962	        358.33339424	          0.00000000	          0.00000000	          0.00000000	          0.00000000	          0.00000000	          0.00000000	          0.00000000	          0.00000000	          0.00000000	          0.00000000	          0.00000000	          0.00000000	          0.00000000	          0.00000000	        -27.41394806	          1.71446061	          6.31549120	         48.07021713	        -48.52462769	         20.51909828	         87.45767975	         83.11152649	          0.00000000	          0.00000000	          0.00000000	          0.00000000	          0.00000000	          0.00000000	          0.00000000	          0.00000000	          0.00000000	       1083.06813307	        313.69714511	        533.27266272	       1067.53714104	        394.25417863	        538.55347217	        713.43785674	        280.87343025	        717.98286684	
          5.05000000	          0.00000000	          0.00000000	        528.20272702	        391.23726304	        358.07835789	          0.00000000	          0.00000000	          0.00000000	          0.00000000	          0.00000000	          0.00000000	          0.00000000	          0.00000000	          0.00000000	          0.00000000	          0.00000000	          0.00000000	          0.00000000	          0.00000000	        -27.48081017	          1.65635490	          6.39138222	         48.24960327	        -48.58021545	         20.62935257	         87.51245880	         82.47877502	          0.00000000	          0.00000000	          0.00000000	          0.00000000	          0.00000000	          0.00000000	          0.00000000	          0.00000000	          0.00000000	       1084.57389379	        313.63136693	        531.96200740	       1068.94831399	        394.31057453	        537.25088653	        715.27268351	        280.65970979	        717.38729732	
          5.06000000	          0.00000000	          0.00000000	        528.78394402	        390.84069908	        357.85902489	          0.00000000	          0.00000000	          0.00000000	          0.00000000	          0.00000000	          0.00000000	          0.00000000	          0.00000000	          0.00000000	          0.00000000	          0.00000000	          0.00000000	          0.00000000	          0.00000000	        -27.54645729	          1.61189342	          6.45282888	         48.43582916	        -48.61530685	         20.77147865	         87.52178955	         82.39643097	          0.00000000	          0.00000000	          0.00000000	          0.00000000	          0.00000000	          0.00000000	          0.00000000	          0.00000000	          0.00000000	       1085.87235590	        313.62295540	        530.63614862	       1070.29073335	        394.34107434	        536.10322482	        717.05820515	        280.74137758	        716.93959100	
          5.07000000	          0.00000000	          0.00000000	        529.36357042	        390.35564220	        357.64907830	          0.00000000	          0.00000000	          0.00000000	          0.00000000	          0.00000000	          0.00000000	          0.00000000	          0.00000000	          0.00000000	          0.00000000	          0.00000000	          0.00000000	          0.00000000	          0.00000000	        -27.63986969	          1.50209308	          6.52525330	         48.54182434	        -48.59088516	         20.80357170	         87.51792908	         82.42890930	          0.00000000	          0.00000000	          0.00000000	          0.00000000	          0.00000000	          0.00000000	          0.00000000	          0.00000000	          0.00000000	       1087.24517316	        313.43113887	        529.22417746	       1071.67126666	        394.18874490	        534.69100860	        718.99239978	        280.62217564	        716.45891278	
          5.08000000	          0.00000000	          0.00000000	        529.94541655	        389.93295619	        357.42868248	          0.00000000	          0.00000000	          0.00000000	          0.00000000	          0.00000000	          0.00000000	          0.00000000	          0.00000000	          0.00000000	          0.00000000	          0.00000000	          0.00000000	          0.00000000	          0.00000000	        -27.71575928	          1.42191684	          6.60667706	         48.71974182	        -48.63381958	         20.87725830	         87.57059479	         82.36143494	          0.00000000	          0.00000000	          0.00000000	          0.00000000	          0.00000000	          0.00000000	          0.00000000	          0.00000000	          0.00000000	       1088.52746164	        313.48889491	        527.74216446	       1072.97952229	        394.22572524	        533.38049930	        720.67137592	        280.66871762	        715.88645090	
